<svg width="879" height="240" viewBox="0 0 879 240" fill="none" xmlns="http://www.w3.org/2000/svg">
<path d="M0 184.242H73.9394L76.3636 175.758L47.2727 177.697V111.515H80C110.545 111.515 142.303 93.5758 142.303 61.0909C142.303 31.2727 117.576 12.1212 80.2424 12.1212H2.42424L0 20.6061L24.2424 18.6667V169.697C24.2424 174.303 21.5758 176.97 16.9697 176.97H2.42424L0 184.242ZM47.2727 104.242V19.3939H73.4545C99.3939 19.3939 115.636 35.3939 115.636 63.7576C115.636 87.0303 99.1515 104.242 76.1212 104.242H47.2727Z" fill="#0D0D0D"/>
<path d="M153.409 184.242H220.076L222.5 175.758L198.258 177.697V107.394H221.773L261.288 166.788C272.197 183.273 292.318 186.667 315.106 186.667L316.318 185.455C301.288 178.182 292.318 173.333 274.621 147.879L242.621 102.303C265.651 98.9091 288.924 83.8788 288.924 59.1515C288.924 27.6364 259.106 12.1212 217.167 12.1212H155.833L153.409 20.6061L177.651 18.6667V169.697C177.651 174.303 174.985 176.97 170.379 176.97H155.833L153.409 184.242ZM198.258 100.121V19.3939H217.651C246.742 19.3939 264.682 35.6364 264.682 61.5758C264.682 85.0909 244.561 100.121 220.318 100.121H198.258Z" fill="#0D0D0D"/>
<path d="M318.57 240H381.6L384.025 232.727L358.57 233.939V181.818C367.54 185.212 376.752 186.667 385.722 186.667C416.267 186.667 441.237 159.273 441.237 120.485C441.237 86.7879 421.843 63.0303 395.903 63.0303C383.54 63.0303 371.661 68.8485 358.57 79.5152V63.0303H356.146C344.994 63.2727 331.418 65.9394 319.782 70.303V73.9394L336.752 83.6364V226.667C336.752 232.485 333.6 233.939 328.509 233.939H320.994L318.57 240ZM358.57 157.818V84.3636C366.085 80.2424 374.812 77.5758 385.722 77.5758C407.055 77.5758 416.752 96.7273 416.752 127.758C416.752 156.364 404.873 180.606 384.752 180.606C372.146 180.606 358.57 170.424 358.57 157.818Z" fill="#0D0D0D"/>
<path d="M453.513 184.242H513.634L516.059 176.97L495.937 178.182V103.758C495.937 90.1818 497.149 76.6061 498.846 63.0303H496.422C487.937 63.5152 466.847 68.6061 455.937 72.7273V76.3636L474.119 84.8485V170.909C474.119 175.515 471.453 178.182 466.846 178.182H455.937L453.513 184.242ZM469.756 19.6364C469.756 27.6364 476.301 34.1818 484.543 34.1818C492.301 34.1818 498.846 27.6364 498.846 19.6364C498.846 11.6364 492.543 5.09092 484.543 5.09092C476.301 5.09092 469.756 11.6364 469.756 19.6364Z" fill="#0D0D0D"/>
<path d="M524.536 184.242H587.081L589.506 176.97L566.96 178.182V48.2424C566.96 33.697 567.93 14.5455 569.384 0H568.172C558.718 0.969699 537.869 6.06061 526.96 10.9091V14.5455L545.142 20.6061V170.909C545.142 175.515 542.475 178.182 537.869 178.182H526.96L524.536 184.242Z" fill="#0D0D0D"/>
<path d="M596.742 184.242H659.288L661.712 176.97L639.167 178.182V48.2424C639.167 33.697 640.136 14.5455 641.591 0H640.379C630.924 0.969699 610.076 6.06061 599.167 10.9091V14.5455L617.348 20.6061V170.909C617.348 175.515 614.682 178.182 610.076 178.182H599.167L596.742 184.242Z" fill="#0D0D0D"/>
<path d="M752.828 186.667C759.131 186.667 770.524 181.091 779.494 174.545V170.909L760.585 168.485C760.585 142.061 760.585 121.697 761.797 95.2727C762.767 74.1818 746.282 63.0303 726.403 63.0303C713.555 63.0303 677.191 89.4545 677.191 96.9697C677.191 101.576 681.797 105.455 689.312 105.455C697.312 105.455 706.524 100.848 705.797 88.7273L705.07 76.3636C707.494 74.1818 714.04 72.7273 719.373 72.7273C736.343 72.7273 738.282 88 738.282 104.485V124.606L708.221 138.424C688.343 147.636 675.737 154.909 675.737 165.818C675.737 179.636 688.827 186.667 702.646 186.667C718.888 186.667 727.615 177.455 738.767 167.273H739.009C739.009 176 741.191 186.667 752.828 186.667ZM700.221 156.606C700.221 150.545 704.585 145.212 714.767 140.606L738.282 129.939V164.849C731.494 167.515 723.252 169.697 715.252 169.697C704.1 169.697 700.221 166.061 700.221 156.606Z" fill="#0D0D0D"/>
<path d="M789.924 184.242H852.954L855.379 176.97L829.924 178.182V90.9091C829.924 88.7273 831.621 87.7576 833.318 87.7576H864.591C874.53 87.7576 878.894 81.4545 878.894 73.4545C878.894 68.3636 875.015 63.0303 871.863 63.0303C866.045 63.0303 838.651 78.303 829.924 83.6364H829.682L823.863 63.0303H821.439C813.682 64.2424 801.56 67.8788 789.924 73.9394V77.5758L808.106 86.0606V170.909C808.106 175.515 805.439 178.182 800.833 178.182H792.348L789.924 184.242Z" fill="#0D0D0D"/>
</svg>
